<?xml version="1.0" encoding="utf-8"?>
<!-- Generator: Adobe Illustrator 24.0.0, SVG Export Plug-In . SVG Version: 6.00 Build 0)  -->
<svg version="1.1" id="Calque_1" xmlns="http://www.w3.org/2000/svg" xmlns:xlink="http://www.w3.org/1999/xlink" x="0px" y="0px"
	 viewBox="0 0 595.3 841.9" style="enable-background:new 0 0 595.3 841.9;" xml:space="preserve">
<style type="text/css">
	.st0{fill:none;stroke:#E22127;stroke-width:2;stroke-miterlimit:10;}
	.st1{fill:none;stroke:#602E88;stroke-miterlimit:10;}
</style>
<g>
	<g>
		<polyline class="st0" points="566.9,85 566.9,28.2 510.4,28.2 		"/>
	</g>
	<g>
		<polyline class="st0" points="567,756.8 567,813.6 510.4,813.6 		"/>
	</g>
	<g>
		<polyline class="st0" points="28.2,756.6 28.2,813.4 84.8,813.4 		"/>
	</g>
</g>
<g>
	<path class="st1" d="M533.3,209.9c0,28,0,56,0,84c0,4.3-1.7,7.7-5.3,10.1c-1.8,1.2-3.7,1.8-5.9,1.8c-8.6,0-17.1,0.1-25.7,0
		c-6.4-0.1-11.1-5-11.2-11.4c0-0.7,0-1.4,0-2.2c0-55,0-110,0-165.1c0-1.4,0-2.9,0.2-4.3c1-5.3,5.7-9.2,11.1-9.2
		c8.4-0.1,16.8,0,25.2,0c6.6,0,11.6,5.1,11.6,11.8C533.3,153.6,533.3,181.8,533.3,209.9z"/>
	<path class="st1" d="M370.1,209.9c0,12.1,0,24.1,0,36.2c0,4.9-2.8,9.1-7.3,10.8c-1.3,0.5-2.8,0.8-4.2,0.8c-24.4,0-48.8,0.1-73.2,0
		c-6.6,0-11.5-4.9-11.5-11.6c0-24.2,0-48.5,0-72.7c0-7.2,6.1-11.9,12.1-11.9c24,0.1,48,0.1,72,0c6.9,0,12.3,5.6,12.2,12.3
		C369.9,186,370.1,198,370.1,209.9z"/>
	<path class="st1" d="M485.2,420.9c0-27.7,0-55.3,0-83c0-1.6,0.1-3.2,0.5-4.7c1.4-4.9,5.8-8.2,10.9-8.2c8.3,0,16.6,0,24.9,0
		c6.8,0,11.8,5.1,11.8,11.9c0,34,0,68,0,102c0,22.2,0,44.3,0,66.5c0,4.6-2,8.1-6,10.4c-1.8,1-3.7,1.4-5.8,1.4
		c-8.2,0-16.3-0.1-24.5,0c-6.6,0.1-11.9-5.3-11.9-12c0.1-25.9,0-51.8,0-77.7C485.2,425.2,485.2,423,485.2,420.9z"/>
	<path class="st1" d="M273.9,420.9c0-12.1,0-24.1,0-36.2c0-5.8,3.5-10.2,9-11.5c0.9-0.2,1.9-0.3,2.8-0.3c24.1,0,48.1,0.1,72.2-0.1
		c7,0,12.1,5.7,12.1,12.1c-0.1,24-0.1,48,0,72c0,6.3-5,12.2-12.1,12.1c-24-0.1-48-0.1-72,0c-6.9,0-12.3-5.4-12.2-12.2
		C274.1,444.9,273.9,432.9,273.9,420.9z"/>
	<path class="st1" d="M533.3,632.3c0,27.9,0,55.8,0,83.7c0,2.9-0.7,5.6-2.4,7.8c-2.2,2.8-5.1,4.4-8.7,4.4c-8.6,0.1-17.3,0.1-25.9,0
		c-6.2-0.1-11-5-11.1-11.2c0-0.6,0-1.3,0-1.9c0-55.2,0-110.4,0-165.5c0-1.4,0-2.9,0.2-4.3c1-5.3,5.7-9.1,11.2-9.1
		c8.3,0,16.6,0,24.9,0c6.8,0,11.8,5.1,11.8,11.9c0,25.4,0,50.9,0,76.3C533.3,627,533.3,629.6,533.3,632.3z"/>
	<path class="st1" d="M321.8,680.3c-12.1,0-24.1,0-36.2,0c-5.1,0-9.2-2.7-10.9-7.2c-0.5-1.3-0.8-2.8-0.8-4.2c0-24.4-0.1-48.8,0-73.2
		c0-6.6,5-11.5,11.6-11.5c24.3,0,48.6,0,72.9,0c6.5,0,11.6,5.1,11.6,11.6c0,24.3,0,48.6,0,72.9c0,6.7-5,11.6-11.7,11.6
		C346.2,680.3,334,680.3,321.8,680.3z"/>
	<path class="st1" d="M427.7,185.8c0,1.2,0,2.1,0,3.1c0,26.6,0,53.3,0,79.9c0,1.4,0,2.7-0.3,4c-1.2,5.3-5.5,8.9-11,9
		c-8.5,0.1-17,0.1-25.4,0c-6.4-0.1-11.2-4.9-11.3-11.3c0-0.4,0-0.8,0-1.2c0-39.7,0-79.4,0-119c0-1.3,0.1-2.7,0.4-4
		c1.3-5.1,5.8-8.5,11.1-8.5c24.3,0,48.6,0,73,0c6.5,0,11.6,5.1,11.6,11.5c0,8.3,0,16.6,0,25c0,6.6-4.9,11.5-11.5,11.6
		c-11.1,0.1-22.2,0-33.4,0C429.8,185.8,428.9,185.8,427.7,185.8z"/>
	<path class="st1" d="M427.7,397c0,1.3,0,2.3,0,3.2c0,26.6,0,53.1,0,79.7c0,1.1,0,2.3-0.1,3.4c-0.9,5.7-5.5,9.7-11.3,9.7
		c-8.4,0.1-16.8,0.1-25.2,0c-6.5-0.1-11.4-4.9-11.4-11.4c-0.1-8.6,0-17.3,0-25.9c0-31.2,0-62.4,0-93.6c0-1.4,0-2.9,0.3-4.3
		c1.2-5.2,5.8-8.9,11.1-8.9c24.4,0,48.8,0,73.2,0c6.4,0,11.4,5.1,11.5,11.4c0.1,8.4,0.1,16.8,0,25.2c0,6.4-5,11.4-11.4,11.4
		c-11.1,0.1-22.2,0-33.4,0C429.9,397,429,397,427.7,397z"/>
	<path class="st1" d="M427.7,608.3c0,1.4,0,2.3,0,3.3c0,26.6,0,53.1,0,79.7c0,1.1,0,2.3-0.1,3.3c-0.9,5.7-5.5,9.7-11.4,9.7
		c-8.3,0.1-16.6,0.1-25,0c-6.8,0-11.6-4.9-11.6-11.7c0-40.2,0-80.3,0-120.5c0-7.3,6.1-12,12-11.9c24,0.1,48,0.1,72,0
		c7,0,12.4,5.6,12.2,12.3c-0.2,7.9-0.2,15.8,0,23.8c0.2,5.9-4.5,12.2-12.1,12.1c-11-0.1-22.1,0-33.1,0
		C429.7,608.3,428.8,608.3,427.7,608.3z"/>
	<path class="st1" d="M110.7,233.8c-1.3,0-2.1,0-3,0c-10.8,0-21.6,0-32.4,0c-1.3,0-2.6,0-3.8-0.3c-5.2-1.2-8.8-5.6-8.8-11.1
		c-0.1-8.3-0.1-16.6,0-25c0-6.8,4.9-11.6,11.7-11.7c11.1,0,22.2,0,33.4,0c0.9,0,1.7,0,3,0c0-1,0-1.9,0-2.7c0-10.9,0-21.8,0-32.6
		c0-1.5,0.1-3.1,0.5-4.5c1.3-4.8,5.7-8.1,10.7-8.1c8.6-0.1,17.1-0.1,25.7,0c6.1,0.1,11.1,5.2,11.2,11.2c0,0.6,0,1.1,0,1.7
		c0,39.5,0,79,0,118.6c0,2.2-0.2,4.3-1.2,6.3c-2.1,3.9-5.3,6.2-9.8,6.3c-8.7,0.1-17.4,0.1-26.2,0c-6.2-0.1-10.9-5.1-10.9-11.4
		c-0.1-11.1,0-22.2,0-33.4C110.7,236.1,110.7,235.2,110.7,233.8z"/>
	<path class="st1" d="M110.7,445.1c-1.3,0-2.1,0-3,0c-10.8,0-21.6,0-32.4,0c-1.3,0-2.6,0-3.8-0.3c-5.2-1.2-8.8-5.6-8.8-11.1
		c-0.1-8.3-0.1-16.6,0-25c0-6.8,4.9-11.6,11.7-11.7c11.1,0,22.2,0,33.4,0c0.9,0,1.7,0,3,0c0-1,0-1.9,0-2.7c0-10.9,0-21.8,0-32.6
		c0-1.5,0.1-3.1,0.5-4.5c1.3-4.8,5.7-8.1,10.7-8.1c8.6-0.1,17.1-0.1,25.7,0c6.1,0.1,11.1,5.2,11.2,11.2c0,0.6,0,1.1,0,1.7
		c0,39.5,0,79,0,118.6c0,2.2-0.2,4.3-1.3,6.3c-2.1,3.9-5.3,6.2-9.8,6.3c-8.7,0.1-17.4,0.1-26.2,0c-6.2-0.1-10.9-5.1-10.9-11.4
		c-0.1-11.1,0-22.2,0-33.4C110.7,447.3,110.7,446.4,110.7,445.1z"/>
	<path class="st1" d="M110.7,656.3c-1.2,0-2.2,0-3.1,0c-11.1,0-22.2,0-33.4,0c-5.4,0-9.7-3.2-11.1-8.2c-0.3-1.1-0.4-2.4-0.4-3.5
		c0-8.2-0.1-16.3,0-24.5c0-6.9,4.9-11.8,11.8-11.8c11.1,0,22.2,0,33.4,0c0.9,0,1.7,0,2.9,0c0-1.1,0-2,0-2.8c0-11,0-21.9,0-32.9
		c0-2.2,0.3-4.3,1.4-6.3c2.2-3.8,5.5-6,10-6c8.5-0.1,17-0.1,25.4,0c6.2,0,11.3,5.1,11.3,11.3c0.1,9,0,18.1,0,27.1
		c0,31.1,0,62.2,0,93.4c0,3.2-0.8,6-2.9,8.4c-2.2,2.5-4.9,3.9-8.2,3.9c-8.6,0-17.3,0.1-25.9,0c-6.3-0.1-11-5-11.1-11.5
		c-0.1-11.1,0-22.2,0-33.4C110.7,658.5,110.7,657.5,110.7,656.3z"/>
	<path class="st1" d="M216.4,185.7c0-1.3,0-2.3,0-3.2c0-11,0-22.1,0-33.1c0-5.8,3.5-10.2,9-11.4c0.8-0.2,1.6-0.2,2.4-0.2
		c8.3,0,16.6,0,25,0c6.6,0,11.7,5.1,11.7,11.7c0,24.2,0,48.5,0,72.7c0,6.7-4.9,11.6-11.7,11.7c-11,0-22.1,0-33.1,0
		c-0.9,0-1.9,0-3.1,0c0,1.1-0.1,1.9-0.1,2.8c0,11.2,0,22.4,0,33.6c0,5-2.8,9.2-7.3,10.8c-1.3,0.5-2.8,0.8-4.2,0.8
		c-8.3,0.1-16.6,0.1-25,0c-6.8,0-11.6-4.9-11.6-11.7c0-24.2,0.1-48.3-0.1-72.5c0-6.1,4.7-12,12-12c11,0.1,22.1,0,33.1,0
		C214.3,185.7,215.1,185.7,216.4,185.7z"/>
	<path class="st1" d="M216.4,445.1c0,1.3,0,2.1,0,3c0,11.1,0,22.2,0,33.4c0,5-2.8,9.2-7.3,10.8c-1.3,0.5-2.8,0.8-4.2,0.8
		c-8.3,0.1-16.6,0.1-25,0c-6.8,0-11.6-4.9-11.6-11.7c0-24.2,0-48.5,0-72.7c0-6.8,4.9-11.7,11.7-11.7c11.1,0,22.2,0,33.4,0
		c0.9,0,1.7,0,3,0c0-1,0-1.9,0-2.7c0-10.9,0-21.8,0-32.6c0-1.3,0-2.6,0.3-3.8c1.2-5.2,5.7-8.8,11.1-8.8c8.3,0,16.6,0,25,0
		c6.6,0,11.7,5.1,11.7,11.7c0,15.3,0,30.6,0,45.8c0,8.8-0.2,17.6,0.1,26.4c0.1,5.9-4.4,12.3-12.3,12.2c-11-0.2-21.9,0-32.9,0
		C218.5,445.1,217.6,445.1,216.4,445.1z"/>
	<path class="st1" d="M216.4,656.3c0,1.2,0,2.1,0,3c0,11,0,22.1,0,33.1c0,4.7-1.9,8.4-6.2,10.6c-1.6,0.8-3.5,1.3-5.3,1.3
		c-8.4,0.1-16.8,0.1-25.2,0c-6.5-0.1-11.4-4.9-11.4-11.4c0-24.4,0-48.8,0-73.2c0-6.6,5-11.4,11.6-11.5c11.1,0,22.2,0,33.4,0
		c0.9,0,1.7,0,2.9,0c0-1,0.1-1.8,0.1-2.7c0-10.9,0-21.8,0-32.6c0-1.3,0-2.6,0.3-3.8c1.2-5.2,5.7-8.8,11.1-8.9c8.4,0,16.8-0.1,25.2,0
		c6.4,0,11.5,5.1,11.5,11.4c0,24.4,0,48.8,0,73.2c0,6.4-5,11.4-11.4,11.4c-11.1,0.1-22.2,0-33.4,0
		C218.7,656.3,217.8,656.3,216.4,656.3z"/>
</g>
</svg>
